<?xml version="1.0" standalone="no"?>

<svg version="1.0" xmlns="http://www.w3.org/2000/svg"
  
 preserveAspectRatio="xMidYMid meet"  >

<g id="meet"  transform="translate (100 150) scale (0.2 -0.2)" viewBox="00 00 100 100">
<path d="M400 885 c0 -3 9 -14 20 -25 25 -25 27 -77 3 -84 -10 -2 -28 -7 -41
-11 -19 -6 -23 -3 -22 12 1 10 1 27 0 38 l-1 20 -8 -20 c-9 -22 1 -69 19 -90
6 -8 25 -15 42 -17 38 -4 58 -30 42 -55 -18 -29 -52 -28 -65 1 -25 53 -39 0
-17 -61 6 -18 9 -36 5 -39 -11 -11 -37 17 -38 40 -1 17 -2 17 -6 4 -2 -10 -8
-18 -13 -18 -4 0 -6 9 -3 20 7 26 -13 50 -42 50 -34 0 -36 -10 -9 -35 19 -18
25 -32 22 -57 -3 -30 -6 -33 -33 -30 l-29 3 19 -21 c19 -21 34 -29 83 -44 16
-5 22 -3 22 8 0 8 -9 18 -20 21 -22 7 -24 13 -11 33 7 12 12 12 30 0 20 -12
24 -10 42 11 10 13 19 31 19 41 0 11 12 22 30 29 40 13 57 56 38 91 -8 14 -20
26 -28 26 -8 1 -20 2 -27 3 -19 2 -3 31 17 31 10 0 21 6 24 13 5 9 7 9 12 -1
11 -25 55 -34 80 -17 31 20 31 20 38 -20 7 -37 19 -50 36 -40 7 4 7 11 2 18
-5 7 -13 30 -16 51 -9 46 -54 96 -88 96 l-23 0 21 -18 c28 -23 36 -48 20 -61
-22 -18 -45 -2 -56 40 -11 40 -41 69 -72 69 -10 0 -18 -2 -18 -5z"/>
<path d="M586 634 c-89 -46 -162 -120 -210 -214 -21 -41 -45 -83 -53 -92 -8
-9 -12 -22 -8 -28 3 -6 3 -9 -2 -8 -4 1 -28 -11 -52 -27 -40 -27 -53 -30 -125
-31 -108 -1 -103 0 -121 -35 -16 -30 -15 -34 16 -104 25 -57 39 -77 61 -86 40
-16 72 0 97 49 12 24 32 44 50 52 17 7 31 16 31 21 0 10 177 6 209 -6 19 -7
22 -5 19 11 -2 14 -19 23 -67 34 -69 17 -101 44 -101 87 0 14 26 68 57 121 32
54 57 99 57 102 0 3 17 21 38 41 21 21 38 35 38 32 0 -2 14 5 30 17 l30 21 0
-80 c0 -65 3 -81 15 -81 8 0 15 -9 15 -20 0 -11 5 -20 11 -20 7 0 8 7 4 18
-16 41 -17 127 -1 165 13 33 13 39 1 44 -30 11 -13 18 48 21 59 2 67 0 106
-31 110 -87 166 -234 140 -366 -6 -34 -12 -61 -13 -61 -27 -9 -84 -9 -111 0
-39 13 -100 78 -136 144 -21 41 -45 63 -56 53 -16 -17 91 -181 138 -211 25
-16 28 -21 16 -28 -22 -12 -133 -15 -189 -5 -40 7 -48 6 -48 -7 0 -47 249 -47
301 0 9 8 23 12 31 9 8 -3 33 11 60 34 56 50 66 94 44 198 -27 130 -95 236
-178 278 -67 34 -109 31 -192 -11z m279 -73 c3 -5 1 -12 -5 -16 -5 -3 -10 1
-10 9 0 18 6 21 15 7z m-541 -337 c7 -30 5 -32 -67 -67 -69 -34 -113 -67 -89
-67 6 0 1 -11 -12 -25 -46 -50 -61 -36 -99 88 -14 48 1 62 47 43 40 -15 38
-15 128 14 68 22 77 28 72 45 -4 13 -3 17 4 10 5 -5 13 -24 16 -41z m-278 -82
c-9 -8 -26 10 -26 26 1 15 2 15 15 -2 8 -11 13 -21 11 -24z"/>
<path d="M668 593 c-37 -43 -27 -145 24 -249 78 -160 194 -189 206 -51 4 48 2
57 -12 57 -13 0 -16 -10 -16 -49 0 -116 -93 -77 -163 68 -25 52 -31 79 -33
143 -1 43 1 78 4 78 28 0 84 -24 92 -40 6 -12 16 -17 26 -13 13 5 13 8 -3 25
-41 46 -99 60 -125 31z"/>
<path d="M481 473 c-17 -21 -31 -49 -31 -63 0 -23 5 -20 50 30 55 61 59 70 31
70 -11 0 -33 -17 -50 -37z"/>
<path d="M828 504 c-5 -7 1 -32 12 -55 11 -24 20 -52 20 -61 0 -10 7 -18 16
-18 21 0 11 46 -16 75 -10 11 -20 31 -22 45 -2 15 -6 21 -10 14z"/>
<path d="M760 426 c0 -28 24 -53 35 -36 6 10 -19 60 -30 60 -3 0 -5 -11 -5
-24z"/>
</g>
</svg>